<mxfile host="Electron" modified="2024-08-28T13:19:42.822Z" agent="Mozilla/5.0 (Windows NT 10.0; Win64; x64) AppleWebKit/537.36 (KHTML, like Gecko) draw.io/21.2.1 Chrome/112.0.5615.87 Electron/24.1.2 Safari/537.36" etag="5Sk1TSvSYnH7sglBvW__" version="21.2.1" type="device">
  <diagram name="第 1 页" id="7w4HHzvd7NijSTBhf-2v">
    <mxGraphModel dx="1101" dy="1978" grid="1" gridSize="10" guides="1" tooltips="1" connect="1" arrows="1" fold="1" page="1" pageScale="1" pageWidth="827" pageHeight="1169" math="0" shadow="0">
      <root>
        <mxCell id="0" />
        <mxCell id="1" parent="0" />
        <mxCell id="1o7bepZuhiXeH4WwuP95-1" value="将十六进制数据转为二进制数据" style="rounded=0;" parent="1" vertex="1">
          <mxGeometry x="330" y="240" width="190" height="40" as="geometry" />
        </mxCell>
        <mxCell id="1o7bepZuhiXeH4WwuP95-2" value="输出进度信息到终端中" style="rounded=0;" parent="1" vertex="1">
          <mxGeometry x="330" y="460" width="190" height="40" as="geometry" />
        </mxCell>
        <mxCell id="1o7bepZuhiXeH4WwuP95-3" value="将读取的string类型数据&#xa;转为十六进制数据" style="rounded=0;" parent="1" vertex="1">
          <mxGeometry x="330" y="170" width="190" height="40" as="geometry" />
        </mxCell>
        <mxCell id="1o7bepZuhiXeH4WwuP95-4" value="" style="endArrow=classic;rounded=0;exitX=0.5;exitY=1;exitDx=0;exitDy=0;" parent="1" source="1o7bepZuhiXeH4WwuP95-3" target="1o7bepZuhiXeH4WwuP95-1" edge="1">
          <mxGeometry width="50" height="50" relative="1" as="geometry">
            <mxPoint x="590" y="340" as="sourcePoint" />
            <mxPoint x="640" y="290" as="targetPoint" />
            <Array as="points">
              <mxPoint x="425" y="230" />
            </Array>
          </mxGeometry>
        </mxCell>
        <mxCell id="1o7bepZuhiXeH4WwuP95-6" value="精简输出" style="rhombus;" parent="1" vertex="1">
          <mxGeometry x="352.5" y="530" width="145" height="40" as="geometry" />
        </mxCell>
        <mxCell id="1o7bepZuhiXeH4WwuP95-10" value="" style="endArrow=classic;rounded=0;exitX=0.5;exitY=1;exitDx=0;exitDy=0;entryX=0.5;entryY=0;entryDx=0;entryDy=0;" parent="1" source="1o7bepZuhiXeH4WwuP95-6" edge="1">
          <mxGeometry width="50" height="50" relative="1" as="geometry">
            <mxPoint x="422.26" y="610" as="sourcePoint" />
            <mxPoint x="425" y="600" as="targetPoint" />
          </mxGeometry>
        </mxCell>
        <mxCell id="1o7bepZuhiXeH4WwuP95-11" value="否" style="text;align=center;verticalAlign=middle;resizable=0;points=[];autosize=1;strokeColor=none;fillColor=none;" parent="1" vertex="1">
          <mxGeometry x="427.5" y="570" width="40" height="30" as="geometry" />
        </mxCell>
        <mxCell id="1o7bepZuhiXeH4WwuP95-12" value="" style="endArrow=classic;rounded=0;exitX=1;exitY=0.5;exitDx=0;exitDy=0;entryX=0.5;entryY=0;entryDx=0;entryDy=0;" parent="1" source="1o7bepZuhiXeH4WwuP95-6" target="1o7bepZuhiXeH4WwuP95-14" edge="1">
          <mxGeometry width="50" height="50" relative="1" as="geometry">
            <mxPoint x="502.5" y="580" as="sourcePoint" />
            <mxPoint x="578" y="620" as="targetPoint" />
            <Array as="points">
              <mxPoint x="580" y="550" />
            </Array>
          </mxGeometry>
        </mxCell>
        <mxCell id="1o7bepZuhiXeH4WwuP95-13" value="是" style="text;align=center;verticalAlign=middle;resizable=0;points=[];autosize=1;strokeColor=none;fillColor=none;" parent="1" vertex="1">
          <mxGeometry x="580" y="570" width="40" height="30" as="geometry" />
        </mxCell>
        <mxCell id="1o7bepZuhiXeH4WwuP95-14" value="输出行位置&#xa;偏移量至日志文件中" style="rounded=0;" parent="1" vertex="1">
          <mxGeometry x="510" y="600" width="140" height="40" as="geometry" />
        </mxCell>
        <mxCell id="1o7bepZuhiXeH4WwuP95-15" value="按字节大小存入数据文件中" style="rounded=0;" parent="1" vertex="1">
          <mxGeometry x="330" y="390" width="190" height="40" as="geometry" />
        </mxCell>
        <mxCell id="1o7bepZuhiXeH4WwuP95-16" value="" style="endArrow=classic;rounded=0;exitX=0.5;exitY=1;exitDx=0;exitDy=0;" parent="1" edge="1">
          <mxGeometry width="50" height="50" relative="1" as="geometry">
            <mxPoint x="424.83" y="360" as="sourcePoint" />
            <mxPoint x="424.83" y="390" as="targetPoint" />
          </mxGeometry>
        </mxCell>
        <mxCell id="1o7bepZuhiXeH4WwuP95-17" value="" style="endArrow=classic;rounded=0;exitX=0.5;exitY=1;exitDx=0;exitDy=0;" parent="1" edge="1">
          <mxGeometry width="50" height="50" relative="1" as="geometry">
            <mxPoint x="424.83" y="430" as="sourcePoint" />
            <mxPoint x="424.83" y="460" as="targetPoint" />
          </mxGeometry>
        </mxCell>
        <mxCell id="1o7bepZuhiXeH4WwuP95-18" value="文件位置" style="rhombus;" parent="1" vertex="1">
          <mxGeometry x="350" y="10" width="150" height="50" as="geometry" />
        </mxCell>
        <mxCell id="1o7bepZuhiXeH4WwuP95-20" value="" style="endArrow=classic;rounded=0;exitX=0.5;exitY=1;exitDx=0;exitDy=0;entryX=0.5;entryY=0;entryDx=0;entryDy=0;" parent="1" source="1o7bepZuhiXeH4WwuP95-18" target="1o7bepZuhiXeH4WwuP95-30" edge="1">
          <mxGeometry width="50" height="50" relative="1" as="geometry">
            <mxPoint x="422.26" y="90" as="sourcePoint" />
            <mxPoint x="425" y="100" as="targetPoint" />
          </mxGeometry>
        </mxCell>
        <mxCell id="1o7bepZuhiXeH4WwuP95-21" value="否" style="text;align=center;verticalAlign=middle;resizable=0;points=[];autosize=1;strokeColor=none;fillColor=none;" parent="1" vertex="1">
          <mxGeometry x="427.5" y="60" width="40" height="30" as="geometry" />
        </mxCell>
        <mxCell id="1o7bepZuhiXeH4WwuP95-23" value="是" style="text;align=center;verticalAlign=middle;resizable=0;points=[];autosize=1;strokeColor=none;fillColor=none;" parent="1" vertex="1">
          <mxGeometry x="520" width="40" height="30" as="geometry" />
        </mxCell>
        <mxCell id="1o7bepZuhiXeH4WwuP95-25" value="" style="endArrow=classic;rounded=0;exitX=0.5;exitY=1;exitDx=0;exitDy=0;" parent="1" edge="1">
          <mxGeometry width="50" height="50" relative="1" as="geometry">
            <mxPoint x="424.88" y="140" as="sourcePoint" />
            <mxPoint x="424.88" y="170" as="targetPoint" />
            <Array as="points">
              <mxPoint x="424.88" y="160" />
            </Array>
          </mxGeometry>
        </mxCell>
        <mxCell id="1o7bepZuhiXeH4WwuP95-26" value="结束" style="rounded=1;" parent="1" vertex="1">
          <mxGeometry x="590" y="15" width="102.5" height="40" as="geometry" />
        </mxCell>
        <mxCell id="1o7bepZuhiXeH4WwuP95-27" value="文件行" style="rounded=0;" parent="1" vertex="1">
          <mxGeometry x="365" y="-60" width="120" height="40" as="geometry" />
        </mxCell>
        <mxCell id="1o7bepZuhiXeH4WwuP95-28" value="" style="endArrow=classic;rounded=0;exitX=0.5;exitY=1;exitDx=0;exitDy=0;" parent="1" source="1o7bepZuhiXeH4WwuP95-27" target="1o7bepZuhiXeH4WwuP95-18" edge="1">
          <mxGeometry width="50" height="50" relative="1" as="geometry">
            <mxPoint x="450" y="120" as="sourcePoint" />
            <mxPoint x="500" y="70" as="targetPoint" />
          </mxGeometry>
        </mxCell>
        <mxCell id="1o7bepZuhiXeH4WwuP95-30" value="是否为文件类型行" style="rhombus;" parent="1" vertex="1">
          <mxGeometry x="350" y="90" width="150" height="50" as="geometry" />
        </mxCell>
        <mxCell id="1o7bepZuhiXeH4WwuP95-31" value="" style="endArrow=classic;rounded=0;exitX=1;exitY=0.5;exitDx=0;exitDy=0;entryX=0;entryY=0.5;entryDx=0;entryDy=0;" parent="1" source="1o7bepZuhiXeH4WwuP95-18" target="1o7bepZuhiXeH4WwuP95-26" edge="1">
          <mxGeometry width="50" height="50" relative="1" as="geometry">
            <mxPoint x="450" y="180" as="sourcePoint" />
            <mxPoint x="500" y="130" as="targetPoint" />
          </mxGeometry>
        </mxCell>
        <mxCell id="1o7bepZuhiXeH4WwuP95-32" value="是" style="text;align=center;verticalAlign=middle;resizable=0;points=[];autosize=1;strokeColor=none;fillColor=none;" parent="1" vertex="1">
          <mxGeometry x="490" y="80" width="40" height="30" as="geometry" />
        </mxCell>
        <mxCell id="1o7bepZuhiXeH4WwuP95-34" value="" style="endArrow=classic;rounded=0;exitX=1;exitY=0.5;exitDx=0;exitDy=0;" parent="1" source="1o7bepZuhiXeH4WwuP95-40" edge="1">
          <mxGeometry width="50" height="50" relative="1" as="geometry">
            <mxPoint x="500" y="114.71" as="sourcePoint" />
            <mxPoint x="560" y="115" as="targetPoint" />
          </mxGeometry>
        </mxCell>
        <mxCell id="1o7bepZuhiXeH4WwuP95-35" value="读取下一行" style="rounded=0;" parent="1" vertex="1">
          <mxGeometry x="690" y="100" width="70" height="30" as="geometry" />
        </mxCell>
        <mxCell id="1o7bepZuhiXeH4WwuP95-36" value="" style="endArrow=classic;rounded=0;exitX=1;exitY=0.5;exitDx=0;exitDy=0;entryX=1;entryY=0.5;entryDx=0;entryDy=0;" parent="1" source="1o7bepZuhiXeH4WwuP95-35" target="1o7bepZuhiXeH4WwuP95-27" edge="1">
          <mxGeometry width="50" height="50" relative="1" as="geometry">
            <mxPoint x="590" y="180" as="sourcePoint" />
            <mxPoint x="720" y="-50" as="targetPoint" />
            <Array as="points">
              <mxPoint x="780" y="115" />
              <mxPoint x="780" y="-40" />
            </Array>
          </mxGeometry>
        </mxCell>
        <mxCell id="1o7bepZuhiXeH4WwuP95-37" value="开始" style="rounded=1;" parent="1" vertex="1">
          <mxGeometry x="370" y="-130" width="110" height="40" as="geometry" />
        </mxCell>
        <mxCell id="1o7bepZuhiXeH4WwuP95-38" value="" style="endArrow=classic;rounded=0;exitX=0.5;exitY=1;exitDx=0;exitDy=0;entryX=0.5;entryY=0;entryDx=0;entryDy=0;" parent="1" source="1o7bepZuhiXeH4WwuP95-37" target="1o7bepZuhiXeH4WwuP95-27" edge="1">
          <mxGeometry width="50" height="50" relative="1" as="geometry">
            <mxPoint x="570" y="210" as="sourcePoint" />
            <mxPoint x="620" y="160" as="targetPoint" />
          </mxGeometry>
        </mxCell>
        <mxCell id="1o7bepZuhiXeH4WwuP95-39" value="否" style="text;align=center;verticalAlign=middle;resizable=0;points=[];autosize=1;strokeColor=none;fillColor=none;" parent="1" vertex="1">
          <mxGeometry x="427.5" y="140" width="40" height="30" as="geometry" />
        </mxCell>
        <mxCell id="1o7bepZuhiXeH4WwuP95-41" value="" style="endArrow=classic;rounded=0;exitX=1;exitY=0.5;exitDx=0;exitDy=0;entryX=0;entryY=0.5;entryDx=0;entryDy=0;" parent="1" source="1o7bepZuhiXeH4WwuP95-40" target="1o7bepZuhiXeH4WwuP95-35" edge="1">
          <mxGeometry width="50" height="50" relative="1" as="geometry">
            <mxPoint x="570" y="120" as="sourcePoint" />
            <mxPoint x="620" y="70" as="targetPoint" />
          </mxGeometry>
        </mxCell>
        <mxCell id="1o7bepZuhiXeH4WwuP95-42" value="是否减少write()调用次数" style="rhombus;" parent="1" vertex="1">
          <mxGeometry x="330" y="310" width="190" height="50" as="geometry" />
        </mxCell>
        <mxCell id="1o7bepZuhiXeH4WwuP95-43" value="" style="endArrow=classic;rounded=0;exitX=0.5;exitY=1;exitDx=0;exitDy=0;" parent="1" edge="1">
          <mxGeometry width="50" height="50" relative="1" as="geometry">
            <mxPoint x="424.86" y="280" as="sourcePoint" />
            <mxPoint x="424.86" y="310" as="targetPoint" />
            <Array as="points">
              <mxPoint x="424.86" y="300" />
            </Array>
          </mxGeometry>
        </mxCell>
        <mxCell id="1o7bepZuhiXeH4WwuP95-45" value="否" style="text;align=center;verticalAlign=middle;resizable=0;points=[];autosize=1;strokeColor=none;fillColor=none;" parent="1" vertex="1">
          <mxGeometry x="427.5" y="360" width="40" height="30" as="geometry" />
        </mxCell>
        <mxCell id="1o7bepZuhiXeH4WwuP95-46" value="是" style="text;align=center;verticalAlign=middle;resizable=0;points=[];autosize=1;strokeColor=none;fillColor=none;" parent="1" vertex="1">
          <mxGeometry x="520" y="300" width="40" height="30" as="geometry" />
        </mxCell>
        <mxCell id="1o7bepZuhiXeH4WwuP95-47" value="" style="endArrow=classic;rounded=0;exitX=1;exitY=0.5;exitDx=0;exitDy=0;" parent="1" edge="1">
          <mxGeometry width="50" height="50" relative="1" as="geometry">
            <mxPoint x="520" y="334.71" as="sourcePoint" />
            <mxPoint x="580" y="335" as="targetPoint" />
          </mxGeometry>
        </mxCell>
        <mxCell id="1o7bepZuhiXeH4WwuP95-48" value="存入buffer_write&#xa;容量大小的vector中" style="rounded=0;" parent="1" vertex="1">
          <mxGeometry x="580" y="310" width="110" height="45" as="geometry" />
        </mxCell>
        <mxCell id="1o7bepZuhiXeH4WwuP95-49" value="" style="endArrow=classic;rounded=0;exitX=0.5;exitY=1;exitDx=0;exitDy=0;entryX=0.5;entryY=0;entryDx=0;entryDy=0;" parent="1" source="1o7bepZuhiXeH4WwuP95-48" target="1o7bepZuhiXeH4WwuP95-50" edge="1">
          <mxGeometry width="50" height="50" relative="1" as="geometry">
            <mxPoint x="590" y="340" as="sourcePoint" />
            <mxPoint x="635" y="400" as="targetPoint" />
          </mxGeometry>
        </mxCell>
        <mxCell id="1o7bepZuhiXeH4WwuP95-50" value="buffer存满或者&#xa;文件处理完写入数据文件中" style="rounded=0;" parent="1" vertex="1">
          <mxGeometry x="560" y="390" width="150" height="40" as="geometry" />
        </mxCell>
        <mxCell id="1o7bepZuhiXeH4WwuP95-59" value="" style="endArrow=classic;rounded=0;exitX=0.5;exitY=1;exitDx=0;exitDy=0;entryX=0.5;entryY=0;entryDx=0;entryDy=0;" parent="1" edge="1">
          <mxGeometry width="50" height="50" relative="1" as="geometry">
            <mxPoint x="424.71" y="500" as="sourcePoint" />
            <mxPoint x="424.71" y="530" as="targetPoint" />
          </mxGeometry>
        </mxCell>
        <mxCell id="1o7bepZuhiXeH4WwuP95-60" value="记录当前进度、&#xa;错误行号存入error缓存中" style="rounded=0;" parent="1" vertex="1">
          <mxGeometry x="350" y="600" width="140" height="40" as="geometry" />
        </mxCell>
        <mxCell id="1o7bepZuhiXeH4WwuP95-62" value="" style="endArrow=classic;rounded=0;exitX=0.5;exitY=1;exitDx=0;exitDy=0;entryX=0.165;entryY=0.295;entryDx=0;entryDy=0;entryPerimeter=0;" parent="1" target="1o7bepZuhiXeH4WwuP95-64" edge="1">
          <mxGeometry width="50" height="50" relative="1" as="geometry">
            <mxPoint x="424.83" y="640" as="sourcePoint" />
            <mxPoint x="424.83" y="670" as="targetPoint" />
          </mxGeometry>
        </mxCell>
        <mxCell id="1o7bepZuhiXeH4WwuP95-63" value="" style="endArrow=classic;rounded=0;exitX=0.5;exitY=1;exitDx=0;exitDy=0;" parent="1" edge="1">
          <mxGeometry width="50" height="50" relative="1" as="geometry">
            <mxPoint x="579.67" y="640" as="sourcePoint" />
            <mxPoint x="580" y="660" as="targetPoint" />
          </mxGeometry>
        </mxCell>
        <mxCell id="1o7bepZuhiXeH4WwuP95-64" value="是否为最后一行" style="rhombus;" parent="1" vertex="1">
          <mxGeometry x="390" y="780" width="207" height="30" as="geometry" />
        </mxCell>
        <mxCell id="1o7bepZuhiXeH4WwuP95-65" value="读取下一行" style="rounded=0;" parent="1" vertex="1">
          <mxGeometry x="682.5" y="780" width="70" height="30" as="geometry" />
        </mxCell>
        <mxCell id="1o7bepZuhiXeH4WwuP95-67" value="是" style="text;align=center;verticalAlign=middle;resizable=0;points=[];autosize=1;strokeColor=none;fillColor=none;" parent="1" vertex="1">
          <mxGeometry x="500" y="810" width="40" height="30" as="geometry" />
        </mxCell>
        <mxCell id="1o7bepZuhiXeH4WwuP95-68" value="" style="endArrow=classic;rounded=0;exitX=0.5;exitY=1;exitDx=0;exitDy=0;entryX=0.5;entryY=0;entryDx=0;entryDy=0;" parent="1" edge="1">
          <mxGeometry width="50" height="50" relative="1" as="geometry">
            <mxPoint x="493.29999999999995" y="810" as="sourcePoint" />
            <mxPoint x="493.29999999999995" y="840" as="targetPoint" />
          </mxGeometry>
        </mxCell>
        <mxCell id="1o7bepZuhiXeH4WwuP95-69" value="否" style="text;align=center;verticalAlign=middle;resizable=0;points=[];autosize=1;strokeColor=none;fillColor=none;" parent="1" vertex="1">
          <mxGeometry x="621.25" y="770" width="40" height="30" as="geometry" />
        </mxCell>
        <mxCell id="1o7bepZuhiXeH4WwuP95-70" value="" style="endArrow=classic;rounded=0;exitX=1;exitY=0.5;exitDx=0;exitDy=0;entryX=0;entryY=0.5;entryDx=0;entryDy=0;" parent="1" source="1o7bepZuhiXeH4WwuP95-64" target="1o7bepZuhiXeH4WwuP95-65" edge="1">
          <mxGeometry width="50" height="50" relative="1" as="geometry">
            <mxPoint x="640" y="730" as="sourcePoint" />
            <mxPoint x="690" y="680" as="targetPoint" />
          </mxGeometry>
        </mxCell>
        <mxCell id="1o7bepZuhiXeH4WwuP95-72" value="" style="endArrow=classic;rounded=0;exitX=1;exitY=0.5;exitDx=0;exitDy=0;entryX=1;entryY=0.5;entryDx=0;entryDy=0;" parent="1" source="1o7bepZuhiXeH4WwuP95-65" target="1o7bepZuhiXeH4WwuP95-27" edge="1">
          <mxGeometry width="50" height="50" relative="1" as="geometry">
            <mxPoint x="650" y="720" as="sourcePoint" />
            <mxPoint x="490" y="-40" as="targetPoint" />
            <Array as="points">
              <mxPoint x="780" y="795" />
              <mxPoint x="780" y="-40" />
            </Array>
          </mxGeometry>
        </mxCell>
        <mxCell id="1o7bepZuhiXeH4WwuP95-74" value="输出正确行数的总信息" style="rounded=0;" parent="1" vertex="1">
          <mxGeometry x="390" y="840" width="210" height="30" as="geometry" />
        </mxCell>
        <mxCell id="1o7bepZuhiXeH4WwuP95-75" value="正确行输出.&#xa;错误行输出F至日志文件" style="rounded=0;" parent="1" vertex="1">
          <mxGeometry x="510" y="660" width="140" height="40" as="geometry" />
        </mxCell>
        <mxCell id="1o7bepZuhiXeH4WwuP95-76" value="输出错误行数的总信息&#xa;将error缓存输出至日志文件中" style="rounded=0;" parent="1" vertex="1">
          <mxGeometry x="390" y="900" width="210" height="40" as="geometry" />
        </mxCell>
        <mxCell id="1o7bepZuhiXeH4WwuP95-77" value="" style="endArrow=classic;rounded=0;exitX=0.5;exitY=1;exitDx=0;exitDy=0;entryX=0.5;entryY=0;entryDx=0;entryDy=0;" parent="1" source="1o7bepZuhiXeH4WwuP95-74" target="1o7bepZuhiXeH4WwuP95-76" edge="1">
          <mxGeometry width="50" height="50" relative="1" as="geometry">
            <mxPoint x="503.29999999999995" y="820" as="sourcePoint" />
            <mxPoint x="503.29999999999995" y="850" as="targetPoint" />
          </mxGeometry>
        </mxCell>
        <mxCell id="1o7bepZuhiXeH4WwuP95-79" value="输出错误日志信息&#xa;至error缓存中" style="rounded=0;" parent="1" vertex="1">
          <mxGeometry x="510" y="720" width="140" height="40" as="geometry" />
        </mxCell>
        <mxCell id="1o7bepZuhiXeH4WwuP95-80" value="" style="endArrow=classic;rounded=0;exitX=0.5;exitY=1;exitDx=0;exitDy=0;" parent="1" edge="1">
          <mxGeometry width="50" height="50" relative="1" as="geometry">
            <mxPoint x="579.5999999999999" y="700" as="sourcePoint" />
            <mxPoint x="579.93" y="720" as="targetPoint" />
            <Array as="points">
              <mxPoint x="579.93" y="720" />
            </Array>
          </mxGeometry>
        </mxCell>
        <mxCell id="1o7bepZuhiXeH4WwuP95-81" value="" style="endArrow=classic;rounded=0;exitX=1;exitY=0.5;exitDx=0;exitDy=0;" parent="1" target="1o7bepZuhiXeH4WwuP95-40" edge="1">
          <mxGeometry width="50" height="50" relative="1" as="geometry">
            <mxPoint x="500" y="114.71" as="sourcePoint" />
            <mxPoint x="560" y="115" as="targetPoint" />
          </mxGeometry>
        </mxCell>
        <mxCell id="1o7bepZuhiXeH4WwuP95-40" value="输出类型日志信息&#xa;至info缓存中" style="rounded=0;" parent="1" vertex="1">
          <mxGeometry x="540" y="95" width="110" height="40" as="geometry" />
        </mxCell>
        <mxCell id="1o7bepZuhiXeH4WwuP95-82" value="将info缓存输出至日志文件中" style="rounded=0;" parent="1" vertex="1">
          <mxGeometry x="390" y="970" width="210" height="30" as="geometry" />
        </mxCell>
        <mxCell id="1o7bepZuhiXeH4WwuP95-83" value="" style="endArrow=classic;rounded=0;exitX=0.5;exitY=1;exitDx=0;exitDy=0;entryX=0.5;entryY=0;entryDx=0;entryDy=0;" parent="1" edge="1">
          <mxGeometry width="50" height="50" relative="1" as="geometry">
            <mxPoint x="496.3" y="940" as="sourcePoint" />
            <mxPoint x="496.3" y="970" as="targetPoint" />
          </mxGeometry>
        </mxCell>
        <mxCell id="1o7bepZuhiXeH4WwuP95-85" value="结束" style="rounded=1;" parent="1" vertex="1">
          <mxGeometry x="440" y="1030" width="110" height="40" as="geometry" />
        </mxCell>
        <mxCell id="1o7bepZuhiXeH4WwuP95-87" value="" style="endArrow=classic;rounded=0;exitX=0.5;exitY=1;exitDx=0;exitDy=0;" parent="1" source="1o7bepZuhiXeH4WwuP95-82" target="1o7bepZuhiXeH4WwuP95-85" edge="1">
          <mxGeometry width="50" height="50" relative="1" as="geometry">
            <mxPoint x="160" y="1040" as="sourcePoint" />
            <mxPoint x="210" y="990" as="targetPoint" />
          </mxGeometry>
        </mxCell>
        <mxCell id="1o7bepZuhiXeH4WwuP95-91" value="" style="endArrow=classic;rounded=0;exitX=0.5;exitY=1;exitDx=0;exitDy=0;" parent="1" source="1o7bepZuhiXeH4WwuP95-79" edge="1">
          <mxGeometry width="50" height="50" relative="1" as="geometry">
            <mxPoint x="620" y="830" as="sourcePoint" />
            <mxPoint x="580" y="790" as="targetPoint" />
          </mxGeometry>
        </mxCell>
      </root>
    </mxGraphModel>
  </diagram>
</mxfile>
